grf
version=1
nRows=12
nColumns=37
inDegrees=no
endheader
time	ground_force_1_vx	ground_force_1_vy	ground_force_1_vz	ground_force_1_px	ground_force_1_py	ground_force_1_pz	ground_moment_1_mx	ground_moment_1_my	ground_moment_1_mz	ground_force_2_vx	ground_force_2_vy	ground_force_2_vz	ground_force_2_px	ground_force_2_py	ground_force_2_pz	ground_moment_2_mx	ground_moment_2_my	ground_moment_2_mz	ground_force_3_vx	ground_force_3_vy	ground_force_3_vz	ground_force_3_px	ground_force_3_py	ground_force_3_pz	ground_moment_3_mx	ground_moment_3_my	ground_moment_3_mz	ground_force_4_vx	ground_force_4_vy	ground_force_4_vz	ground_force_4_px	ground_force_4_py	ground_force_4_pz	ground_moment_4_mx	ground_moment_4_my	ground_moment_4_mz
      1.41000000	      0.00000000	     -0.00000000	      0.00000000	      0.00000000	      0.00000000	      0.00000000	      0.00000000	      0.00000000	      0.00000000	      1.54335499	     -2.19928932	   -778.86773682	   -275.51680096	  -1056.83147283	      0.00000000	     -0.00000000	     -0.00000000	   -469.53144295	      0.00000000	     -0.00000000	      0.00000000	      0.00000000	      0.00000000	      0.00000000	      0.00000000	      0.00000000	      0.00000000	    -34.67838528	     16.13625067	     76.50756836	    602.18696420	   -562.95066978	      0.00000000	      0.00000000	     -0.00000000	   -137.50379036
      1.42000000	      0.00000000	     -0.00000000	      0.00000000	      0.00000000	      0.00000000	      0.00000000	      0.00000000	      0.00000000	      0.00000000	      2.32436609	     -1.27672100	   -780.27929688	   -276.43299049	  -1056.98286371	      0.00000000	      0.00000000	     -0.00000000	   -428.55711404	      0.00000000	     -0.00000000	      0.00000000	      0.00000000	      0.00000000	      0.00000000	      0.00000000	      0.00000000	      0.00000000	    -34.85989999	     16.43814582	     75.80566406	    605.30352632	   -563.36838696	      0.00000000	      0.00000000	     -0.00000000	   -213.60953720
      1.43000000	      0.00000000	     -0.00000000	      0.00000000	      0.00000000	      0.00000000	      0.00000000	      0.00000000	      0.00000000	      0.00000000	      2.67893481	     -0.32244945	   -783.47772217	   -277.49402294	  -1057.33623763	      0.00000000	      0.00000000	     -0.00000000	   -589.93519941	      0.00000000	     -0.00000000	      0.00000000	      0.00000000	      0.00000000	      0.00000000	      0.00000000	      0.00000000	      0.00000000	    -34.70988321	     16.34252661	     74.96765137	    607.76990232	   -562.42101534	      0.00000000	      0.00000000	     -0.00000000	   -385.40914436
      1.44000000	      0.00000000	     -0.00000000	      0.00000000	      0.00000000	      0.00000000	      0.00000000	      0.00000000	      0.00000000	      0.00000000	      3.17998219	      0.79938722	   -785.58618164	   -278.36542615	  -1057.35348990	      0.00000000	      0.00000000	     -0.00000000	   -546.65387733	      0.00000000	     -0.00000000	      0.00000000	      0.00000000	      0.00000000	      0.00000000	      0.00000000	      0.00000000	      0.00000000	    -34.77364969	     16.42926902	     75.93074036	    606.32951376	   -564.06002517	      0.00000000	      0.00000000	     -0.00000000	   -262.89149385
      1.45000000	      0.00000000	     -0.00000000	      0.00000000	      0.00000000	      0.00000000	      0.00000000	      0.00000000	      0.00000000	      0.00000000	      3.71810961	      0.89431620	   -787.37573242	   -279.54966356	  -1057.32818237	      0.00000000	      0.00000000	      0.00000000	   -377.28642764	      0.00000000	     -0.00000000	      0.00000000	      0.00000000	      0.00000000	      0.00000000	      0.00000000	      0.00000000	      0.00000000	    -34.76730968	     16.16566008	     76.64627075	    599.96536651	   -561.95296631	      0.00000000	      0.00000000	     -0.00000000	   -144.52788599
      1.46000000	      0.00000000	     -0.00000000	      0.00000000	      0.00000000	      0.00000000	      0.00000000	      0.00000000	      0.00000000	      0.00000000	      4.90976429	     -0.54114884	   -788.28503418	   -280.27606099	  -1056.73764651	      0.00000000	      0.00000000	     -0.00000000	   -152.45177354	      0.00000000	     -0.00000000	      0.00000000	      0.00000000	      0.00000000	      0.00000000	      0.00000000	      0.00000000	      0.00000000	    -34.79934550	     16.28802032	     75.11746216	    604.79717758	   -566.35131685	      0.00000000	      0.00000000	     -0.00000000	    -51.78461933
      1.47000000	      0.00000000	     -0.00000000	      0.00000000	      0.00000000	      0.00000000	      0.00000000	      0.00000000	      0.00000000	      0.00000000	      5.20280886	     -0.37827739	   -790.20379639	   -280.82730926	  -1056.68719764	      0.00000000	      0.00000000	     -0.00000000	   -159.13367610	      0.00000000	     -0.00000000	      0.00000000	      0.00000000	      0.00000000	      0.00000000	      0.00000000	      0.00000000	      0.00000000	    -34.97826244	     16.19827767	     74.26055145	    608.39511181	   -565.73576294	      0.00000000	      0.00000000	     -0.00000000	    -84.22052452
      1.48000000	      0.00000000	     -0.00000000	      0.00000000	      0.00000000	      0.00000000	      0.00000000	      0.00000000	      0.00000000	      0.00000000	      4.52118921	     -0.89130402	   -788.63665771	   -281.71045249	  -1056.33626262	      0.00000000	      0.00000000	     -0.00000000	   -137.64360117	      0.00000000	     -0.00000000	      0.00000000	      0.00000000	      0.00000000	      0.00000000	      0.00000000	      0.00000000	      0.00000000	    -34.82399227	     16.13715667	     74.40185547	    609.03955024	   -565.01579688	      0.00000000	     -0.00000000	     -0.00000000	    -93.12613570
      1.49000000	      0.00000000	     -0.00000000	      0.00000000	      0.00000000	      0.00000000	      0.00000000	      0.00000000	      0.00000000	      0.00000000	      4.50024271	     -0.85536170	   -785.45739746	   -282.01295243	  -1055.71562478	      0.00000000	     -0.00000000	     -0.00000000	   -188.72781101	      0.00000000	     -0.00000000	      0.00000000	      0.00000000	      0.00000000	      0.00000000	      0.00000000	      0.00000000	      0.00000000	    -34.77087642	     16.16998023	     77.48052216	    597.55118746	   -563.59495610	      0.00000000	      0.00000000	     -0.00000000	    -88.06372419
      1.50000000	      0.00000000	     -0.00000000	      0.00000000	      0.00000000	      0.00000000	      0.00000000	      0.00000000	      0.00000000	      0.00000000	      3.79970074	     -1.04910660	   -783.44982910	   -282.79319684	  -1054.68491845	      0.00000000	      0.00000000	     -0.00000000	    -67.37589924	      0.00000000	     -0.00000000	      0.00000000	      0.00000000	      0.00000000	      0.00000000	      0.00000000	      0.00000000	      0.00000000	    -35.10894634	     16.16598245	     75.78887939	    603.67775542	   -561.91967338	      0.00000000	      0.00000000	     -0.00000000	   -116.98798618
      1.51000000	      0.00000000	     -0.00000000	      0.00000000	      0.00000000	      0.00000000	      0.00000000	      0.00000000	      0.00000000	      0.00000000	      4.49301338	     -2.19580150	   -781.49133301	   -283.93607850	  -1054.62899086	      0.00000000	      0.00000000	     -0.00000000	    -19.70359061	      0.00000000	     -0.00000000	      0.00000000	      0.00000000	      0.00000000	      0.00000000	      0.00000000	      0.00000000	      0.00000000	    -34.82768490	     16.12860984	     77.41443634	    598.84449416	   -561.38628263	      0.00000000	      0.00000000	      0.00000000	    -40.07944680
      1.52000000	      0.00000000	     -0.00000000	      0.00000000	      0.00000000	      0.00000000	      0.00000000	      0.00000000	      0.00000000	      0.00000000	      6.09034443	     -3.51292348	   -779.95031738	   -285.17215875	  -1053.21500675	      0.00000000	      0.00000000	      0.00000000	    247.94370147	      0.00000000	     -0.00000000	      0.00000000	      0.00000000	      0.00000000	      0.00000000	      0.00000000	      0.00000000	      0.00000000	    -34.91708995	     16.29374046	     74.97476959	    608.69723313	   -568.92296256	      0.00000000	      0.00000000	     -0.00000000	    -22.45759164
